<svg xmlns="http://www.w3.org/2000/svg" width="126" height="48" viewBox="0 0 126 48" fill="none"><g clip-path="url(#clip0_5551_225)"><path d="M30.2236 0C25.3499 0 20.6758 1.93608 17.2295 5.38234L5.98243 16.6294C2.53618 20.0757 0.600098 24.7498 0.600098 29.6235C0.600098 39.7726 8.82752 48 18.9766 48C23.8503 48 28.5244 46.0638 31.9707 42.6176L39.7503 34.8379C39.7505 34.8381 39.7503 34.8378 39.7503 34.8379L62.4177 12.1706C64.0636 10.5247 66.2959 9.6 68.6236 9.6C72.5206 9.6 75.8244 12.1399 76.9699 15.6545L84.1236 8.50074C80.8601 3.38934 75.1377 0 68.6236 0C63.7499 0 59.0758 1.93608 55.6295 5.38234L25.1825 35.8294C23.5366 37.4754 21.3043 38.4 18.9766 38.4C14.1294 38.4 10.2001 34.4707 10.2001 29.6235C10.2001 27.2958 11.1248 25.0635 12.7707 23.4176L24.0177 12.1706C25.6636 10.5247 27.8959 9.6 30.2236 9.6C34.1207 9.6 37.4244 12.14 38.5699 15.6547L45.7238 8.50091C42.4603 3.38944 36.7379 0 30.2236 0Z" fill="#241F33"></path><path d="M63.5827 35.8294C61.9368 37.4754 59.7045 38.4 57.3768 38.4C53.4803 38.4 50.1768 35.8608 49.031 32.3467L41.8774 39.5003C45.1411 44.611 50.8632 48 57.3768 48C62.2506 48 66.9246 46.0638 70.3709 42.6176L100.818 12.1706C102.464 10.5247 104.696 9.6 107.024 9.6C111.871 9.6 115.8 13.5293 115.8 18.3765C115.8 20.7042 114.876 22.9365 113.23 24.5824L101.983 35.8294C100.337 37.4754 98.1045 38.4 95.7768 38.4C91.88 38.4 88.5763 35.8603 87.4307 32.3459L80.2771 39.4997C83.5406 44.6109 89.2629 48 95.7768 48C100.651 48 105.325 46.0638 108.771 42.6176L120.018 31.3706C123.464 27.9243 125.4 23.2502 125.4 18.3765C125.4 8.22742 117.173 0 107.024 0C102.15 0 97.476 1.93608 94.0298 5.38234L63.5827 35.8294Z" fill="#241F33"></path></g><defs><clipPath id="clip0_5551_225"><rect width="124.8" height="48" fill="white" transform="translate(0.600098)"></rect></clipPath></defs></svg>