<svg xmlns="http://www.w3.org/2000/svg" width="77" height="48" viewBox="0 0 77 48" fill="none"><g clip-path="url(#clip0_5551_246)"><path d="M71.757 5.90032C71.757 5.95629 71.757 6.02625 71.7427 6.06822C71.6711 6.61391 71.6711 7.15959 71.714 7.71927C71.7427 7.85919 71.7713 7.99911 71.8858 8.11105C72.0718 8.32092 72.358 8.27895 72.4725 8.02709C72.5298 7.90117 72.5298 7.77524 72.5011 7.64931C72.358 7.11761 72.3294 6.55794 72.3151 6.01225C72.3151 5.98427 72.3151 5.94229 72.3151 5.90032C72.4725 5.88633 72.6156 5.87233 72.7444 5.87233C72.8446 5.85834 72.9305 5.84435 73.002 5.80237C73.2166 5.69044 73.2166 5.45258 72.9876 5.34064C72.9018 5.29866 72.7874 5.28467 72.6872 5.28467C72.3294 5.29866 71.9717 5.29866 71.6139 5.29866C71.4851 5.29866 71.3563 5.31266 71.2275 5.32665C71.1559 5.34064 71.0701 5.34064 71.0129 5.38262C70.9126 5.42459 70.8555 5.49455 70.8555 5.59249C70.8698 5.69044 70.9126 5.74641 71.0129 5.78838C71.0701 5.83036 71.1416 5.84435 71.2132 5.84435C71.3849 5.85834 71.571 5.88633 71.757 5.90032ZM75.6923 6.54395C75.6923 6.55794 75.7066 6.57193 75.7066 6.57193C75.7639 6.94971 75.8212 7.31351 75.8641 7.67729C75.8785 7.80322 75.8927 7.91516 75.9786 8.0131C76.1646 8.25096 76.4509 8.22298 76.5796 7.97113C76.6369 7.8452 76.6511 7.71927 76.6226 7.57935C76.5367 7.15959 76.4937 6.73983 76.4079 6.33407C76.3506 6.08221 76.2791 5.84435 76.2076 5.62048C76.1646 5.48056 76.0645 5.38261 75.8927 5.36862C75.721 5.34064 75.5922 5.42459 75.5206 5.55052C75.4348 5.66245 75.3632 5.77439 75.3059 5.90032C75.2058 6.12419 75.1199 6.34806 75.0055 6.55794C74.9911 6.61391 74.9768 6.65589 74.9482 6.69785C74.9339 6.66987 74.9197 6.65589 74.9197 6.65589C74.7335 6.30609 74.5618 5.95629 74.3758 5.62048C74.3471 5.59249 74.3329 5.56451 74.3186 5.53653C74.2327 5.4106 74.1326 5.34064 73.9751 5.34064C73.832 5.35463 73.7175 5.43858 73.646 5.56451C73.6173 5.62048 73.6173 5.66245 73.603 5.71842C73.5458 6.16617 73.4742 6.61391 73.417 7.06165C73.3883 7.31351 73.3741 7.56536 73.3741 7.81721C73.3598 7.87318 73.3741 7.94314 73.4026 7.99911C73.4313 8.11104 73.5172 8.18101 73.6316 8.195C73.7747 8.20899 73.8749 8.16701 73.9179 8.05508C73.9607 7.97113 73.9751 7.90117 73.9894 7.83121C74.0467 7.57935 74.0896 7.34149 74.1326 7.10363C74.1611 6.96371 74.1754 6.85177 74.2184 6.69785C74.247 6.75383 74.2756 6.79581 74.3043 6.83777C74.433 7.00569 74.5618 7.17359 74.7193 7.31351C74.8767 7.42544 75.0055 7.41145 75.1342 7.28552C75.1629 7.25753 75.1772 7.24355 75.2058 7.21556C75.3346 7.01967 75.4921 6.82379 75.6208 6.62789C75.6495 6.59991 75.6638 6.57193 75.6923 6.54395Z" fill="#241F33"></path><path d="M42.7193 6.1752C42.6198 6.4411 42.6008 6.63268 42.6468 6.79191C42.6975 7.00843 42.8292 7.07932 43.0079 7.02425C44.6887 6.61785 48.3746 7.77138 49.7392 8.09288C50.061 8.16039 50.3228 7.75419 50.1032 7.39C49.7827 7.03731 46.0985 5.5273 44.6928 5.44497C44.1418 5.41453 43.1567 5.27637 42.7193 6.1752Z" fill="#241F33"></path><path d="M57.1243 1.28704C57.3035 1.38814 57.4036 1.48457 57.453 1.59232C57.5267 1.73366 57.4878 1.83145 57.3641 1.88135C56.253 2.41155 54.7745 4.69418 54.1777 5.48143C54.033 5.66254 53.6993 5.5573 53.6489 5.25948C53.6593 4.92274 54.9699 2.44558 55.7014 1.77088C55.9888 1.50746 56.4637 0.990596 57.1243 1.28704Z" fill="#241F33"></path><path d="M48.2759 0.163414C48.4911 0.0048206 48.7147 -0.0507552 48.829 0.0523104C50.5054 1.45407 51.3943 3.67389 51.9448 5.70608C51.9655 5.75342 51.9669 5.82136 51.9503 5.89224C51.9434 5.95282 51.8981 6.01681 51.8262 6.06633C51.7494 6.12099 51.6833 6.13764 51.6522 6.09053C50.9175 5.11344 46.7211 1.31173 48.2759 0.163414Z" fill="#241F33"></path><path d="M12.7763 24.4665C13.1781 24.1741 13.6149 23.9306 14.0771 23.7416C14.5607 23.6065 15.0762 23.6288 15.5456 23.8055C16.0149 23.9823 16.4128 24.3036 16.6787 24.7209C16.9167 25.1372 17.0097 25.6179 16.9441 26.0905C16.8784 26.5629 16.6575 27.0018 16.3145 27.341C16.0486 27.6159 15.7468 27.8553 15.417 28.0532C13.9471 28.9817 12.4641 29.8592 10.9812 30.7877C10.6778 31.0201 10.3559 31.2285 10.0186 31.4109C9.50559 31.6611 8.9193 31.7281 8.36109 31.6003C7.80289 31.4727 7.3079 31.1582 6.96171 30.7114C6.70292 30.3951 6.48451 30.0492 6.3113 29.6812C4.90643 26.7941 3.44953 23.9197 2.09668 20.9816C1.47229 19.7098 0.964979 18.2471 0.470672 16.8354C0.256811 16.4252 0.215049 15.9497 0.354278 15.5098C0.493507 15.07 0.802741 14.7006 1.2162 14.4802C1.62967 14.2599 2.11473 14.206 2.56824 14.3299C3.02175 14.4538 3.40794 14.7459 3.64464 15.1438C4.37222 16.0892 5.01628 17.0934 5.56985 18.1455C6.97472 20.6892 8.31456 23.2328 9.6674 25.7002C9.74617 25.8366 9.83303 25.9682 9.92756 26.0945C10.9458 25.6759 11.9035 25.1286 12.7763 24.4665Z" fill="#241F33"></path><path d="M27.302 23.5792C24.089 27.2548 18.7036 26.3263 15.998 21.5951C14.0727 18.2374 13.7346 12.6921 17.9232 9.19446C18.8176 8.46221 19.8872 7.96339 21.0321 7.74453C22.4359 7.54777 23.8674 7.7899 25.1219 8.43636C26.3764 9.08281 27.3899 10.1005 28.0175 11.3439C30.3069 15.4139 29.9817 20.603 27.302 23.5792ZM26.0012 15.0069C25.6598 14.0067 24.9751 13.1529 24.063 12.5903C23.5468 12.2306 22.9197 12.0557 22.2872 12.0951C21.6546 12.1345 21.0552 12.3857 20.5898 12.8065C18.7297 14.4218 18.3394 18.2501 19.6922 20.5267C19.8647 20.898 20.1179 21.2279 20.4344 21.4934C20.7508 21.7589 21.1228 21.9537 21.5243 22.0638C21.9258 22.1741 22.347 22.1973 22.7586 22.1317C23.1702 22.066 23.562 21.9133 23.907 21.6841C24.9153 20.9197 25.655 19.8672 26.0233 18.6729C26.3917 17.4784 26.3703 16.2015 25.9622 15.0196L26.0012 15.0069Z" fill="#241F33"></path><path d="M40.4139 16.6092C40.085 16.6784 39.7452 16.6825 39.4145 16.6213C39.084 16.5601 38.7692 16.435 38.4888 16.2532C38.2435 16.1159 38.0323 15.9273 37.8704 15.7007C37.7086 15.4741 37.6001 15.2154 37.5529 14.9429C37.5056 14.6705 37.5207 14.3912 37.597 14.1251C37.6733 13.8591 37.8092 13.6128 37.9945 13.4041C38.3174 12.9848 38.7758 12.6846 39.2953 12.552C40.6516 12.1672 42.0479 11.9325 43.4579 11.8525C43.7677 11.8173 44.0816 11.8429 44.381 11.9279C44.6806 12.013 44.9596 12.1556 45.202 12.3476C45.4443 12.5395 45.6451 12.7769 45.7923 13.0457C45.9395 13.3145 46.0304 13.6093 46.0595 13.9129C46.466 15.4042 46.5105 16.9678 46.1895 18.4789C45.0189 23.3628 40.9863 25.0416 36.4595 23.4773C35.1888 23.059 34.0747 22.2797 33.2595 21.2388C32.1723 19.9854 31.4015 18.4999 31.0091 16.9018C30.6912 15.4787 30.726 14.0021 31.1108 12.5949C31.4954 11.1877 32.2188 9.89093 33.2205 8.81278C34.1711 7.64096 35.4049 6.71874 36.8108 6.12916C37.6991 5.65041 38.7386 5.51429 39.7246 5.7476C39.9482 5.80812 40.1512 5.92605 40.3126 6.08915C40.4739 6.25226 40.5877 6.45459 40.6421 6.67519C40.6966 6.89577 40.6896 7.12657 40.6221 7.34366C40.5544 7.56074 40.4288 7.7562 40.2579 7.90976C39.9331 8.19727 39.5801 8.45287 39.2042 8.67287C38.0477 9.39295 37.0414 10.3208 36.2384 11.4073C35.712 12.1104 35.3495 12.9178 35.1765 13.7725C35.0033 14.6273 35.024 15.5087 35.2368 16.3549C35.5318 17.5087 36.1864 18.5443 37.1099 19.3183C39.9717 21.8621 43.692 19.4073 43.0416 15.9352C42.0921 16.1641 41.2595 16.4058 40.4139 16.6092Z" fill="#241F33"></path><path d="M57.897 23.7825C53.6694 26.3263 48.8564 23.7825 47.8027 18.4408C47.0352 14.6252 48.4921 9.28339 53.5914 7.24842C54.6763 6.82476 55.8531 6.67602 57.0125 6.81598C58.4055 7.06531 59.6833 7.73581 60.6658 8.73298C61.6483 9.73014 62.286 11.0036 62.4888 12.374C63.3474 16.9145 61.3962 21.7603 57.897 23.7825ZM59.367 15.2229C59.3657 14.1664 58.9834 13.144 58.2873 12.3358C57.9152 11.836 57.3773 11.4778 56.7653 11.3224C56.1532 11.167 55.5051 11.224 54.9311 11.4837C52.6417 12.4503 51.0287 15.9606 51.6141 18.5426C51.6588 18.9477 51.7935 19.3385 52.0087 19.6875C52.2239 20.0365 52.5145 20.3353 52.8603 20.563C53.2059 20.7907 53.5983 20.9419 54.0099 21.0059C54.4216 21.0699 54.8425 21.0452 55.2433 20.9336C56.4535 20.5203 57.5013 19.7478 58.2405 18.724C58.9798 17.7002 59.3736 16.4762 59.367 15.2229Z" fill="#241F33"></path><path d="M66.7645 24.8509C66.7006 25.3164 66.4504 25.7381 66.0686 26.0231C65.6867 26.3081 65.2048 26.4332 64.7287 26.3708C64.2526 26.3084 63.8214 26.0636 63.5299 25.6903C63.2383 25.3171 63.1105 24.8458 63.1743 24.3803C63.2381 23.9148 63.4884 23.4932 63.8702 23.2081C64.252 22.9231 64.7339 22.7981 65.21 22.8605C65.6861 22.9229 66.1173 23.1676 66.4089 23.5409C66.7004 23.9142 66.8284 24.3855 66.7645 24.8509ZM65.6327 7.69353C65.8802 7.32409 66.2431 7.04276 66.6675 6.89148C67.0917 6.74021 67.5547 6.72709 67.9873 6.85411C68.427 6.96168 68.8155 7.21369 69.0879 7.56794C69.3602 7.92221 69.4997 8.35719 69.4832 8.80005C69.4258 9.51042 69.3172 10.2159 69.158 10.9113C68.7287 13.2643 68.3125 15.6172 67.8572 17.9447C67.6491 18.8732 67.3759 19.7635 67.0767 20.7046C66.9726 20.9988 66.7987 21.2647 66.5694 21.4805C66.4268 21.6428 66.2447 21.7673 66.0399 21.8424C65.835 21.9177 65.6141 21.9412 65.3975 21.9107C65.181 21.8803 64.9757 21.7969 64.8008 21.6684C64.6259 21.5398 64.4871 21.3702 64.3971 21.1752C64.2424 20.8255 64.1584 20.4497 64.1499 20.0687C64.1499 18.4916 64.1499 16.9018 64.2539 15.3119C64.4308 13.0431 64.7786 10.79 65.2946 8.57111C65.3553 8.27384 65.4698 7.98956 65.6327 7.73169V7.69353Z" fill="#241F33"></path><path fill-rule="evenodd" clip-rule="evenodd" d="M7.28044 35.0713C7.12685 35.4066 7.08473 35.7803 7.15978 36.14C7.20971 36.6141 7.31938 37.0805 7.48629 37.5284C7.69468 38.0769 7.92786 38.6193 8.21538 39.2878C8.2815 39.4416 8.3506 39.6022 8.4229 39.7712C8.81063 40.6769 9.29713 41.8343 9.94606 43.5094C10.1297 43.9853 10.2928 44.465 10.4571 44.9481C10.5234 45.1433 10.59 45.3391 10.6582 45.5353C10.9025 46.2331 11.3229 46.8599 11.8801 47.3567C12.1168 47.6298 12.4306 47.8287 12.7825 47.9282C13.1413 48.0297 13.5229 48.0233 13.8779 47.9098C14.2329 47.7962 14.5447 47.5809 14.7728 47.2917C14.9964 47.0082 15.1294 46.6665 15.1553 46.3096C15.3004 45.6142 15.2508 44.8932 15.0117 44.2229C14.6322 43.1098 14.1998 41.9951 13.7013 40.9049L13.699 40.9001C12.8789 39.1943 12.0452 37.5003 11.1721 35.8057L11.1655 35.7938C10.9099 35.3524 10.5778 34.9577 10.1839 34.6276C9.92828 34.3329 9.57562 34.1341 9.18617 34.0656C8.78841 33.9957 8.37818 34.0662 8.02872 34.2646C7.69813 34.4492 7.43608 34.7316 7.28044 35.0713Z" fill="#241F33"></path><path fill-rule="evenodd" clip-rule="evenodd" d="M19.8071 30.8712C18.5211 30.5455 17.1781 30.4981 15.8716 30.7322C14.8597 30.8296 13.8644 31.0578 13.1734 31.5099C12.8219 31.74 12.5377 32.0354 12.3796 32.4109C12.2207 32.7884 12.2004 33.2202 12.3306 33.7013C12.5684 34.5825 12.8773 35.4393 13.185 36.2934L13.2349 36.4317L13.2361 36.4348C14.1627 38.916 15.0982 41.3887 16.0421 43.853C16.1522 44.2413 16.3079 44.616 16.506 44.9693L16.5097 44.9758C16.7714 45.4148 17.1071 45.8074 17.5025 46.1372C17.7003 46.3185 17.9449 46.444 18.2101 46.5001C18.4779 46.5566 18.7564 46.5402 19.0153 46.4525C19.2743 46.3649 19.5036 46.2094 19.6783 46.003C19.8503 45.8 19.9628 45.5554 20.0042 45.2952C20.1748 44.588 20.1202 43.8468 19.8474 43.1708C19.7623 42.9434 19.6956 42.7109 19.6252 42.4662C19.6018 42.3846 19.578 42.3016 19.5529 42.217C21.7136 41.3912 24.0127 40.2808 24.8212 37.6975C25.1378 36.8048 25.1642 35.8382 24.8967 34.9301C24.629 34.021 24.0797 33.2153 23.3246 32.6238C22.2968 31.7958 21.0963 31.1976 19.8071 30.8712ZM16.2425 34.0397C16.2851 34.0277 16.3279 34.0166 16.3709 34.0062C17.7776 33.79 19.2169 34.0781 20.4236 34.8173C20.9555 35.1789 21.1733 35.5807 21.2107 35.9673C21.2494 36.3654 21.1013 36.7968 20.8039 37.2114C20.242 37.9947 19.2166 38.6216 18.2903 38.7385C17.615 37.218 16.9292 35.6359 16.2425 34.0397Z" fill="#241F33"></path><path d="M28.3804 28.088C29.9118 27.3964 31.8088 27.277 33.2932 27.7632C33.667 27.8697 33.9914 28.1 34.2107 28.4147C34.4287 28.7275 34.5293 29.1044 34.4957 29.4812C34.4935 29.7258 34.4321 29.9664 34.3166 30.1835C34.199 30.4045 34.0287 30.5946 33.8201 30.7377C33.6115 30.8807 33.3707 30.9727 33.1182 31.0055C32.8655 31.0385 32.6086 31.0114 32.369 30.9266L32.3507 30.9202L32.3336 30.9114C32.211 30.8486 32.0807 30.8014 31.946 30.7706L31.9375 30.7688C30.8933 30.4976 29.9083 30.9469 29.5485 31.499C29.3769 31.7623 29.3556 32.028 29.4986 32.2698C29.6516 32.5286 30.027 32.8191 30.7866 33.0262C30.9955 33.0823 31.2096 33.1364 31.4268 33.1914C32.0275 33.3434 32.6517 33.5014 33.2553 33.7203L33.2576 33.7212C36.0423 34.7571 37.0792 36.9026 36.7242 38.9206C36.373 40.9162 34.6685 42.7323 32.1052 43.1607C31.1724 43.3629 30.2018 43.3235 29.2892 43.0465C28.3744 42.7687 27.5498 42.2617 26.8973 41.5758L26.8803 41.5579C26.6743 41.2994 26.5358 40.9958 26.4743 40.6737C26.4178 40.383 26.4476 40.0825 26.56 39.8077C26.6717 39.5346 26.8606 39.2982 27.1044 39.1259C27.362 38.9306 27.6725 38.8135 27.9975 38.789C28.3214 38.7647 28.6455 38.8335 28.9299 38.9869C29.2139 39.1211 29.4782 39.2923 29.7153 39.4958L29.7198 39.4995C30.1394 39.8747 30.647 39.9725 31.1337 39.8819C31.6276 39.7901 32.092 39.5043 32.3907 39.1253C32.6874 38.7486 32.8065 38.3011 32.6651 37.8667C32.5229 37.4291 32.0951 36.9389 31.1553 36.529C30.9096 36.427 30.6549 36.3447 30.3899 36.2647C30.3185 36.2431 30.2458 36.2216 30.1723 36.1998C29.9764 36.1416 29.7748 36.0817 29.5771 36.0157C29.441 35.9703 29.3059 35.9274 29.1722 35.8847C28.8066 35.7683 28.4502 35.6549 28.1072 35.5027C27.3607 35.2542 26.7158 34.777 26.2684 34.1418C25.8191 33.504 25.5931 32.7414 25.6239 31.9677C25.6263 30.0823 26.8408 28.7833 28.3804 28.088Z" fill="#241F33"></path><path d="M47.7953 27.887C47.4984 27.7452 47.17 27.6779 46.8399 27.6911C46.5097 27.7044 46.1881 27.7978 45.9041 27.963C45.6219 28.1271 45.3856 28.3569 45.2163 28.6319C45.0611 28.8635 44.9536 29.1225 44.9001 29.3944C44.8465 29.6662 44.8478 29.9454 44.9038 30.2165C44.9591 30.565 45.0204 30.9038 45.0809 31.238C45.1812 31.7909 45.2787 32.3315 45.3431 32.8826L45.3455 32.8966C45.492 33.7609 45.5687 34.635 45.5755 35.511L45.5762 35.5235C45.6263 36.4695 45.2966 37.3971 44.6579 38.1095L44.6477 38.1221C44.4399 38.3825 44.162 38.5813 43.8451 38.6962C43.5283 38.811 43.1851 38.8374 42.8538 38.7724C42.5225 38.7074 42.2163 38.5536 41.9693 38.3281C41.7223 38.1026 41.5442 37.8135 41.4553 37.4949C41.2655 36.8232 41.1556 36.1323 41.1277 35.4361L41.4519 30.3892C41.4567 30.3233 41.4622 30.2557 41.4677 30.1874C41.48 30.0341 41.4927 29.878 41.4979 29.7324C41.5056 29.5181 41.499 29.2978 41.448 29.0892C41.3957 28.876 41.2963 28.6732 41.1201 28.5005C40.9455 28.3296 40.7099 28.2035 40.4134 28.1176C39.8772 27.9659 39.4238 27.9707 39.046 28.1274C38.668 28.2842 38.409 28.5753 38.2258 28.9115C38.0439 29.2449 37.9271 29.6396 37.8387 30.0349C37.7731 30.3282 37.7204 30.6362 37.6704 30.9293C37.653 31.0304 37.6361 31.1295 37.619 31.2258L37.6186 31.2287C37.3506 32.8362 37.2709 34.4685 37.3808 36.0937C37.4014 36.972 37.5887 37.8389 37.9334 38.6502C38.3223 39.6971 39.0267 40.6041 39.9536 41.2515C40.8826 41.9003 41.991 42.2578 43.1323 42.2766C44.2736 42.2955 45.3939 41.9749 46.3447 41.3573C47.2941 40.7406 48.0298 39.8568 48.4546 38.8227C49.0488 37.5054 49.3278 36.0729 49.2702 34.6342C49.2353 33.5838 49.1769 32.5254 49.1187 31.4724C49.0901 30.9558 49.0616 30.4404 49.0361 29.9281C49.0232 29.4144 48.85 28.9168 48.5395 28.5022C48.3474 28.24 48.0917 28.0286 47.7953 27.887Z" fill="#241F33"></path><path d="M58.3056 35.8007C58.2755 35.8381 58.2438 35.8768 58.2106 35.9171C57.9691 34.5547 57.7452 33.1928 57.521 31.8289C57.4406 31.3395 57.3598 30.848 57.2785 30.358L57.2694 30.3033L57.2397 30.2561C57.1837 30.1672 57.1782 30.08 57.1782 29.8941V29.8727L57.1748 29.8514C57.1141 29.4675 56.9365 29.1102 56.6652 28.8264C56.3947 28.5433 56.0433 28.3463 55.6568 28.2607C55.2709 28.1677 54.8654 28.1882 54.4913 28.3197C54.1183 28.451 53.7931 28.6868 53.5563 28.9977C53.3595 29.2363 53.1982 29.501 53.0773 29.7837C52.803 30.3929 52.5262 31.0036 52.2487 31.6159L52.2439 31.6265C51.551 33.1552 50.8535 34.6941 50.1763 36.2452L50.1742 36.2502C49.7584 37.2559 49.4152 38.3156 49.0732 39.3721C49.005 39.5829 48.9367 39.7937 48.8678 40.0039C48.7443 40.3373 48.6903 40.6914 48.7089 41.0454C48.6864 41.3623 48.764 41.6785 48.9313 41.9511C49.1019 42.2293 49.3575 42.4481 49.662 42.5769C49.9847 42.7153 50.3455 42.7446 50.6872 42.6604C51.0283 42.5763 51.3311 42.3839 51.5481 42.1133C51.8252 41.78 52.0635 41.4165 52.2579 41.0315C52.8316 39.884 53.3799 38.7227 53.9257 37.5663C54.1369 37.119 54.3421 36.7184 54.5756 36.2822C54.5916 36.336 54.608 36.3884 54.6249 36.441C54.8696 37.4943 55.2826 38.5032 55.8487 39.4307C55.9558 39.6271 56.105 39.7988 56.2861 39.934C56.4694 40.0708 56.6809 40.1668 56.906 40.2156C57.131 40.2643 57.3643 40.2645 57.5894 40.2162C57.8143 40.168 58.0264 40.0719 58.2098 39.9357L58.5728 39.6701L61.3898 37.3501L61.2232 38.3881C60.9946 39.8149 60.7677 41.2298 60.5266 42.645C60.3688 43.2723 60.3691 43.9275 60.5272 44.5545C60.5958 44.9075 60.7703 45.2323 61.0286 45.4878C61.2891 45.7454 61.6227 45.9204 61.9862 45.9902C62.3497 46.0599 62.7263 46.0213 63.067 45.8791C63.4028 45.7392 63.6884 45.5051 63.888 45.2067C64.3525 44.6432 64.6416 43.9611 64.721 43.2414C64.8406 42.2251 64.9756 41.195 65.1108 40.1652C65.2665 38.9781 65.4221 37.7915 65.5536 36.6276L65.554 36.624C65.6806 35.3499 65.7418 34.0706 65.7375 32.7905C65.7652 32.386 65.6623 31.983 65.4428 31.6386C65.2225 31.293 64.8963 31.0243 64.5108 30.8706C64.1098 30.6924 63.6609 30.6447 63.2301 30.7348C62.8021 30.8243 62.4147 31.0448 62.1241 31.3644C61.6045 31.8342 61.1171 32.337 60.6649 32.8695L60.6619 32.8731C60.1682 33.4745 59.678 34.0877 59.1909 34.697C58.8947 35.0673 58.5994 35.4368 58.3056 35.8007Z" fill="#241F33"></path></g><defs><clipPath id="clip0_5551_246"><rect width="76.3636" height="48" fill="white" transform="translate(0.273438)"></rect></clipPath></defs></svg>