<svg xmlns="http://www.w3.org/2000/svg" width="151" height="48" viewBox="0 0 151 48" fill="none"><g clip-path="url(#clip0_5551_241)"><path d="M142.577 2.57868C142.577 1.15908 143.728 0.00707735 145.147 0.00707735H146.862C147.544 0.00707735 148.198 0.278013 148.681 0.760282C149.163 1.24255 149.434 1.89665 149.434 2.57868C149.434 3.26071 149.163 3.9148 148.681 4.39707C148.198 4.87934 147.544 5.15028 146.862 5.15028H145.147C144.81 5.15028 144.476 5.08375 144.164 4.9545C143.852 4.82525 143.568 4.63581 143.33 4.397C143.091 4.15819 142.902 3.87469 142.772 3.5627C142.643 3.2507 142.577 2.91633 142.577 2.57868V2.57868ZM70.5879 17.1479C70.5879 26.6135 62.9151 34.2875 53.4483 34.2875C43.9827 34.2875 36.3087 26.6135 36.3087 17.1479C36.3087 7.67988 43.9827 0.00827735 53.4483 0.00827735C62.9151 0.00827735 70.5879 7.67988 70.5879 17.1479ZM32.9655 17.0627C33.9135 17.0627 34.6887 17.8307 34.5939 18.7739C34.2699 22.0017 33.0366 25.0712 31.0372 27.6258C29.0378 30.1805 26.3545 32.1152 23.2991 33.2052C20.2438 34.2953 16.9418 34.4958 13.7769 33.7836C10.6121 33.0714 7.71432 31.4756 5.42047 29.1817C3.12661 26.8879 1.53083 23.9901 0.818597 20.8253C0.10636 17.6604 0.306912 14.3584 1.39694 11.303C2.48698 8.24765 4.42173 5.56435 6.97634 3.56497C9.53095 1.56559 12.6005 0.332247 15.8283 0.00827735C16.7703 -0.0877227 17.5395 0.689877 17.5395 1.63548V15.3479C17.5395 16.2959 18.3075 17.0627 19.2543 17.0627H32.9655V17.0627ZM94.5843 37.7159C95.948 37.7159 97.2559 38.2576 98.2202 39.2219C99.1846 40.1862 99.7263 41.4941 99.7263 42.8579C99.7263 44.2216 99.1846 45.5295 98.2202 46.4938C97.2559 47.4581 95.948 47.9999 94.5843 47.9999H86.0151C84.6514 47.9999 83.3435 47.4581 82.3792 46.4938C81.4148 45.5295 80.8731 44.2216 80.8731 42.8579C80.8731 41.4941 81.4148 40.1862 82.3792 39.2219C83.3435 38.2576 84.6514 37.7159 86.0151 37.7159H94.5843ZM89.4423 34.2875C98.9091 34.2875 106.583 26.6135 106.583 17.1479C106.587 14.2402 105.848 11.3797 104.436 8.83788L107.268 6.00588C107.595 5.67952 107.853 5.2921 108.03 4.86575C108.206 4.4394 108.297 3.98246 108.297 3.52103C108.297 3.0596 108.206 2.6027 108.029 2.17644C107.852 1.75017 107.593 1.36288 107.267 1.03668C106.941 0.710474 106.553 0.451746 106.127 0.275266C105.701 0.0987864 105.244 0.00801082 104.782 0.00812226C104.321 0.00823369 103.864 0.09923 103.438 0.275916C103.011 0.452601 102.624 0.711516 102.298 1.03788L99.8259 3.50988C96.8436 1.23216 93.1937 0.00103916 89.4411 0.00707735C79.9767 0.00827735 72.3039 7.67988 72.3039 17.1479C72.3039 26.6135 79.9779 34.2875 89.4435 34.2875H89.4423ZM142.577 17.1479C142.577 26.6135 134.903 34.2875 125.436 34.2875C115.971 34.2875 108.297 26.6135 108.297 17.1479C108.297 7.67988 115.971 0.00827735 125.436 0.00827735C134.903 0.00827735 142.577 7.68108 142.577 17.1479Z" fill="#241F33"></path></g><defs><clipPath id="clip0_5551_241"><rect width="150" height="48" fill="white" transform="translate(0.399902)"></rect></clipPath></defs></svg>