<svg xmlns="http://www.w3.org/2000/svg" width="160" height="40" viewBox="0 0 160 40" fill="none"><path d="M4.52832 37.0999H38.7283V2.8999H4.52832V37.0999ZM32.1457 16.7092H24.919V9.48257H32.1457V16.7092ZM11.1097 9.48257H18.3403V23.2906H32.1457V30.5172H11.1097V9.48257ZM60.999 2.8999C57.6169 2.8999 54.3108 3.90281 51.4988 5.78178C48.6866 7.66076 46.4949 10.3314 45.2006 13.456C43.9064 16.5807 43.5678 20.0188 44.2276 23.3359C44.8874 26.653 46.5159 29.6999 48.9074 32.0914C51.2989 34.483 54.3458 36.1115 57.6629 36.7714C60.9801 37.4311 64.4182 37.0926 67.5429 35.7983C70.6676 34.504 73.3381 32.3123 75.2171 29.5002C77.0961 26.688 78.099 23.3819 78.099 19.9999C78.0937 15.4663 76.2904 11.12 73.0846 7.91424C69.8789 4.7085 65.5326 2.9052 60.999 2.8999ZM60.999 30.5172C58.9189 30.5172 56.8854 29.9004 55.1558 28.7447C53.4263 27.5891 52.0782 25.9466 51.2822 24.0247C50.4862 22.103 50.2779 19.9883 50.6837 17.948C51.0895 15.9079 52.0913 14.0339 53.5621 12.563C55.033 11.0922 56.907 10.0905 58.9472 9.68466C60.9873 9.27885 63.1019 9.48713 65.0238 10.2832C66.9455 11.0792 68.5882 12.4272 69.7438 14.1568C70.8996 15.8863 71.5163 17.9198 71.5163 19.9999C71.5121 22.788 70.4026 25.4607 68.4311 27.4322C66.4597 29.4036 63.787 30.513 60.999 30.5172ZM139.291 2.8999C135.908 2.89965 132.603 3.90232 129.79 5.78113C126.978 7.65994 124.786 10.3305 123.492 13.4551C122.197 16.5796 121.858 20.018 122.518 23.3351C123.178 26.6523 124.806 29.6994 127.198 32.091C129.589 34.4826 132.636 36.1114 135.954 36.7712C139.27 37.4311 142.708 37.0926 145.834 35.7984C148.958 34.5042 151.628 32.3124 153.507 29.5003C155.387 26.6882 156.39 23.382 156.39 19.9999C156.384 15.4666 154.582 11.1204 151.376 7.9147C148.171 4.70901 143.824 2.90556 139.291 2.8999ZM139.291 30.5172C137.211 30.5175 135.178 29.9008 133.448 28.7454C131.718 27.5899 130.37 25.9474 129.573 24.0256C128.777 22.1039 128.569 19.9891 128.974 17.9488C129.38 15.9087 130.382 14.0346 131.852 12.5635C133.323 11.0925 135.198 10.0907 137.238 9.68476C139.278 9.27884 141.392 9.48704 143.314 10.283C145.236 11.079 146.879 12.427 148.035 14.1567C149.19 15.8863 149.807 17.9198 149.807 19.9999C149.803 22.7878 148.694 25.4602 146.722 27.4316C144.751 29.4031 142.079 30.5127 139.291 30.5172ZM100.144 2.8999C96.7622 2.8999 93.4561 3.90281 90.6441 5.78178C87.832 7.66076 85.6402 10.3314 84.3459 13.456C83.0517 16.5807 82.7132 20.0188 83.3729 23.3359C84.0328 26.653 85.6613 29.6999 88.0527 32.0914C90.4442 34.483 93.4912 36.1115 96.8082 36.7714C100.125 37.4311 103.564 37.0926 106.688 35.7983C109.813 34.504 112.483 32.3123 114.362 29.5002C116.241 26.688 117.244 23.3819 117.244 19.9999C117.239 15.4663 115.436 11.12 112.23 7.91424C109.024 4.7085 104.678 2.9052 100.144 2.8999ZM100.144 30.5172C98.2062 30.5182 96.3057 29.9836 94.6522 28.9726C92.9989 27.9615 91.6569 26.5134 90.7746 24.7878C89.8925 23.0622 89.5041 21.1263 89.6526 19.194C89.8012 17.2616 90.4806 15.4079 91.6162 13.8374C92.7518 12.2669 94.2993 11.0407 96.0877 10.2942C97.8762 9.54764 99.8362 9.3098 101.751 9.60689C103.666 9.904 105.462 10.7245 106.94 11.9778C108.419 13.2311 109.522 14.8686 110.128 16.7092H100.144V23.2906H110.128C109.434 25.391 108.096 27.2195 106.304 28.5166C104.512 29.8138 102.357 30.5136 100.144 30.5172Z" fill="#241F33"></path></svg>