<svg xmlns="http://www.w3.org/2000/svg" width="127" height="48" viewBox="0 0 127 48" fill="none"><path d="M58.1631 42.2857H61.4444V29.9086H58.1631V42.2857ZM58.1631 27.9784H61.4444V25.0349H58.1631V27.9784Z" fill="#241F33"></path><path d="M63.5586 46.3391H66.8399V40.8864H66.8882C67.5878 41.948 68.7218 42.6477 70.459 42.6477C73.6438 42.6477 75.8152 40.1144 75.8152 36.1092C75.8152 32.2488 73.7161 29.5708 70.4348 29.5708C68.746 29.5708 67.5878 30.367 66.7916 31.4526H66.7193V29.9086H63.5586V46.3391ZM69.7594 39.9213C67.805 39.9213 66.7675 38.4496 66.7675 36.2057C66.7675 33.9861 67.5878 32.2247 69.6386 32.2247C71.6653 32.2247 72.4856 33.8654 72.4856 36.2057C72.4856 38.5461 71.4241 39.9213 69.7594 39.9213Z" fill="#241F33"></path><path d="M82.3609 42.6477C85.4491 42.6477 87.5723 41.1518 87.5723 38.6667C87.5723 35.7714 85.2803 35.1924 83.2054 34.7582C81.444 34.3962 79.8034 34.2996 79.8034 33.2381C79.8034 32.3454 80.6478 31.8628 81.9266 31.8628C83.3259 31.8628 84.1704 32.3454 84.3151 33.6724H87.2828C87.0415 31.1873 85.232 29.5708 81.9749 29.5708C79.152 29.5708 76.9322 30.8495 76.9322 33.5276C76.9322 36.2298 79.1037 36.8331 81.3234 37.2674C83.0123 37.605 84.5805 37.7258 84.5805 38.908C84.5805 39.7766 83.7602 40.3314 82.3126 40.3314C80.8409 40.3314 79.8275 39.7042 79.6104 38.2806H76.5703C76.7634 40.9106 78.7659 42.6477 82.3609 42.6477Z" fill="#241F33"></path><path d="M100.03 42.2856V29.9084H96.7491V37.05C96.7491 38.6906 95.8082 39.8488 94.264 39.8488C92.8647 39.8488 92.2132 39.0526 92.2132 37.6049V29.9084H88.9561V38.1599C88.9561 40.862 90.5002 42.6234 93.2507 42.6234C94.9879 42.6234 95.9529 41.9719 96.7975 40.8379H96.8698V42.2856H100.03Z" fill="#241F33"></path><path d="M102.152 42.2858H105.434V35.0958C105.434 33.4552 106.326 32.3937 107.653 32.3937C108.86 32.3937 109.559 33.1174 109.559 34.5168V42.2858H112.841V35.0958C112.841 33.4552 113.685 32.3937 115.06 32.3937C116.267 32.3937 116.966 33.1174 116.966 34.5168V42.2858H120.248V33.962C120.248 31.2597 118.776 29.5708 116.17 29.5708C114.602 29.5708 113.299 30.3911 112.455 31.7422H112.406C111.803 30.4394 110.549 29.5708 108.98 29.5708C107.267 29.5708 106.061 30.4394 105.385 31.5734H105.313V29.9086H102.152V42.2858Z" fill="#241F33"></path><path d="M58.2114 21.0863H61.4927V3.83545H58.2114V21.0863Z" fill="#241F33"></path><path d="M69.5159 21.4482C73.3522 21.4482 75.982 18.6012 75.982 14.9098C75.982 11.2183 73.3522 8.37134 69.5159 8.37134C65.6797 8.37134 63.0498 11.2183 63.0498 14.9098C63.0498 18.6012 65.6797 21.4482 69.5159 21.4482ZM69.5159 18.939C67.4892 18.939 66.3794 17.3225 66.3794 14.9098C66.3794 12.497 67.4892 10.8564 69.5159 10.8564C71.5184 10.8564 72.6524 12.497 72.6524 14.9098C72.6524 17.3225 71.5184 18.939 69.5159 18.939Z" fill="#241F33"></path><path d="M82.9597 25.3086C84.7935 25.3086 86.3859 24.8743 87.4233 23.9092C88.3401 23.0647 88.8951 21.8825 88.8951 20.1454V8.70911H85.7344V10.012H85.6861C84.9382 8.97451 83.8042 8.37134 82.26 8.37134C79.1236 8.37134 76.9038 10.7358 76.9038 14.4272C76.9038 18.1669 79.6061 20.3383 82.3566 20.3383C83.9249 20.3383 84.8658 19.7111 85.5897 18.8908H85.662V20.2418C85.662 21.9307 84.7693 22.8234 82.9115 22.8234C81.3915 22.8234 80.6919 22.2203 80.4264 21.4482H77.1693C77.5071 23.8609 79.582 25.3086 82.9597 25.3086ZM82.9115 17.7085C81.2226 17.7085 80.1127 16.478 80.1127 14.379C80.1127 12.3041 81.2226 11.0012 82.8874 11.0012C84.8658 11.0012 85.8308 12.5453 85.8308 14.3549C85.8308 16.1885 84.9864 17.7085 82.9115 17.7085Z" fill="#241F33"></path><path d="M96.8709 21.4482C100.707 21.4482 103.337 18.6012 103.337 14.9098C103.337 11.2183 100.707 8.37134 96.8709 8.37134C93.0347 8.37134 90.4048 11.2183 90.4048 14.9098C90.4048 18.6012 93.0347 21.4482 96.8709 21.4482ZM96.8709 18.939C94.8442 18.939 93.7343 17.3225 93.7343 14.9098C93.7343 12.497 94.8442 10.8564 96.8709 10.8564C98.8734 10.8564 100.007 12.497 100.007 14.9098C100.007 17.3225 98.8734 18.939 96.8709 18.939Z" fill="#241F33"></path><path d="M106.213 16.3575H120.4V13.5347H106.213V16.3575Z" fill="#241F33"></path><path d="M121.44 27.8061C121.44 27.2509 121.89 26.8008 122.446 26.8008H124.456C125.012 26.8008 125.462 27.2509 125.462 27.8061C125.462 28.3613 125.012 28.8114 124.456 28.8114H122.446C121.89 28.8114 121.44 28.3613 121.44 27.8061Z" fill="#241F33"></path><path fill-rule="evenodd" clip-rule="evenodd" d="M25.0259 0C38.2807 0 49.0259 10.7452 49.0259 24C49.0259 37.2548 38.2807 48 25.0259 48C11.771 48 1.02588 37.2548 1.02588 24C1.02588 10.7452 11.771 0 25.0259 0ZM24.1584 1.79591C21.4205 2.18123 18.8134 4.3813 16.7896 8.06088C16.2025 9.1282 15.6728 10.3074 15.2112 11.5805C17.963 10.889 20.986 10.4813 24.1584 10.4182V1.79591ZM13.1828 12.157C13.7568 10.3555 14.459 8.69808 15.2694 7.22478C16.2726 5.40071 17.4632 3.82554 18.8047 2.61572C11.51 4.73428 5.76015 10.4841 3.64161 17.7788C4.85141 16.4374 6.42659 15.2467 8.25066 14.2435C9.72396 13.4332 11.3814 12.7309 13.1828 12.157ZM12.6064 14.1853C11.9149 16.9372 11.5072 19.9601 11.4441 23.1325H2.82178C3.20711 20.3945 5.40718 17.7874 9.08676 15.7637C10.1541 15.1766 11.3332 14.647 12.6064 14.1853ZM13.1795 23.1325C13.2511 19.6704 13.7495 16.4201 14.5741 13.5482C17.446 12.7236 20.6964 12.2251 24.1584 12.1535V15.901C22.8668 19.2074 20.2326 21.8414 16.926 23.1325H13.1795ZM11.4441 24.8675H2.82178C3.20711 27.6055 5.40718 30.2125 9.08676 32.2363C10.1541 32.8234 11.3332 33.353 12.6064 33.8147C11.9149 31.0628 11.5072 28.0399 11.4441 24.8675ZM14.5741 34.4518C13.7495 31.5799 13.2511 28.3296 13.1795 24.8675H16.926C20.2326 26.1586 22.867 28.7926 24.1584 32.099V35.8465C20.6964 35.7749 17.446 35.2764 14.5741 34.4518ZM13.1828 35.843C11.3814 35.2691 9.72396 34.5668 8.25066 33.7565C6.42659 32.7533 4.85141 31.5626 3.64161 30.2212C5.76015 37.5158 11.51 43.2658 18.8047 45.3842C17.4632 44.1744 16.2726 42.5993 15.2694 40.7752C14.459 39.3019 13.7568 37.6445 13.1828 35.843ZM24.1584 46.2041C21.4205 45.8188 18.8134 43.6187 16.7896 39.9391C16.2025 38.8718 15.6728 37.6926 15.2112 36.4195C17.963 37.111 20.986 37.5187 24.1584 37.5817V46.2041ZM31.247 45.3842C32.5885 44.1744 33.7792 42.5993 34.7825 40.7752C35.5927 39.3019 36.295 37.6445 36.8689 35.843C38.6704 35.2691 40.3278 34.5668 41.8012 33.7565C43.6252 32.7533 45.2004 31.5626 46.4101 30.2212C44.2916 37.5158 38.5417 43.2658 31.247 45.3842ZM34.8406 36.4195C34.3789 37.6926 33.8492 38.8718 33.2622 39.9391C31.2385 43.6187 28.6314 45.8188 25.8934 46.2041V37.5817C29.0658 37.5187 32.0887 37.111 34.8406 36.4195ZM37.4454 33.8147C38.7185 33.353 39.8977 32.8234 40.965 32.2363C44.6446 30.2125 46.8446 27.6055 47.23 24.8675H38.6076C38.5446 28.0399 38.1368 31.0628 37.4454 33.8147ZM36.8724 24.8675C36.8008 28.3296 36.3023 31.5799 35.4776 34.4518C32.6058 35.2764 29.3555 35.7749 25.8934 35.8465V32.1018C27.1844 28.7941 29.8193 26.1589 33.1268 24.8675H36.8724ZM38.6076 23.1325H47.23C46.8446 20.3945 44.6446 17.7874 40.965 15.7637C39.8977 15.1766 38.7185 14.647 37.4454 14.1853C38.1368 16.9372 38.5446 19.9601 38.6076 23.1325ZM35.4776 13.5482C36.3023 16.4201 36.8008 19.6704 36.8724 23.1325H33.1268C29.8193 21.8411 27.1844 19.2059 25.8934 15.8982V12.1535C29.3555 12.2251 32.6058 12.7236 35.4776 13.5482ZM36.8689 12.157C38.6704 12.7309 40.3278 13.4332 41.8012 14.2435C43.6252 15.2467 45.2004 16.4374 46.4101 17.7788C44.2916 10.4841 38.5417 4.73428 31.247 2.61572C32.5885 3.82554 33.7792 5.40071 34.7825 7.22478C35.5927 8.69808 36.295 10.3555 36.8689 12.157ZM25.8934 1.79591C28.6314 2.18123 31.2385 4.3813 33.2622 8.06088C33.8492 9.12821 34.3789 10.3074 34.8406 11.5805C32.0887 10.889 29.0658 10.4813 25.8934 10.4182V1.79591Z" fill="#241F33"></path></svg>